<svg width="32" height="33" viewBox="0 0 32 33" fill="none" xmlns="http://www.w3.org/2000/svg">
<path fill-rule="evenodd" clip-rule="evenodd" d="M0.109657 16.3959C0.109657 7.58958 7.24855 0.450684 16.0548 0.450684C24.8611 0.450684 32 7.58958 32 16.3959C32 25.2021 24.8611 32.341 16.0548 32.341C7.24855 32.341 0.109657 25.2021 0.109657 16.3959ZM4.9603 18.1137C4.00989 18.1137 3.37729 18.8718 3.58012 19.8024C3.58012 19.8024 3.43889 19.2958 3.59693 19.8646C5.11275 25.3203 10.1162 29.3244 16.0548 29.3244C23.1951 29.3244 28.9833 23.5361 28.9833 16.3959C28.9833 9.25563 23.1951 3.46734 16.0548 3.46734C10.1057 3.46734 5.09512 7.48553 3.58895 12.956C3.4348 13.5158 3.57987 12.9894 3.57987 12.9894C3.39182 13.9223 4.01122 14.6785 4.96025 14.6785L15.7673 14.6785C16.0054 14.6785 16.0622 14.5426 15.8922 14.3732C15.8922 14.3732 14.4947 12.98 13.9868 12.4798C12.3455 10.8445 14.7833 8.41535 16.4084 10.0346L21.6465 15.2966C22.2329 15.8865 22.2358 16.8463 21.6527 17.4401L16.4084 22.7571C14.7833 24.3764 12.3455 21.9472 13.9705 20.3279C14.4932 19.8134 15.8917 18.4194 15.8917 18.4194C16.0611 18.2506 16.0052 18.1137 15.7673 18.1137H4.9603Z" fill="#808080"/>
</svg>
