<svg width="109" height="63" viewBox="0 0 109 63" fill="none" xmlns="http://www.w3.org/2000/svg">
<path d="M24.493 40.4639C24.1234 40.8335 23.5823 41.1106 22.8696 41.2954C22.1833 41.5066 21.3518 41.6122 20.3751 41.6122C19.3984 41.6122 18.4746 41.467 17.6035 41.1766C16.7324 40.8863 16.0197 40.1867 15.4653 39.0781L11.5454 31.0799C11.1495 30.2616 10.7931 29.4961 10.4764 28.7834C10.1596 28.0443 9.81644 27.1996 9.44688 26.2493L9.20931 26.2889C9.3149 27.7143 9.36769 29.1661 9.36769 30.6443C9.39409 32.1226 9.40729 33.5744 9.40729 34.9998V41.137C9.11692 41.2162 8.66818 41.2954 8.06106 41.3746C7.48033 41.4538 6.8996 41.4934 6.31887 41.4934C5.73815 41.4934 5.22341 41.4538 4.77467 41.3746C4.32592 41.2954 3.95637 41.137 3.66601 40.8995C3.37564 40.6619 3.15127 40.3451 2.99289 39.9492C2.83451 39.5268 2.75532 38.9857 2.75532 38.3258V18.5283C3.12487 18.0003 3.6924 17.6044 4.45791 17.3404C5.22341 17.0764 6.04171 16.9445 6.9128 16.9445C7.88948 16.9445 8.81336 17.1028 9.68445 17.4196C10.5819 17.71 11.2947 18.3963 11.8226 19.4785L15.7821 27.4767C16.178 28.295 16.5344 29.0737 16.8512 29.8128C17.1679 30.5256 17.5111 31.3571 17.8806 32.3073L18.0786 32.2677C17.973 30.8423 17.907 29.4169 17.8806 27.9915C17.8542 26.5661 17.841 25.1406 17.841 23.7152V17.3008C18.1314 17.2216 18.5669 17.1424 19.1477 17.0632C19.7548 16.984 20.3487 16.9445 20.9294 16.9445C22.0909 16.9445 22.9752 17.1556 23.5823 17.578C24.1894 17.9739 24.493 18.8186 24.493 20.1121V40.4639ZM28.4411 29.2585C28.4411 27.1996 28.7578 25.3782 29.3913 23.7944C30.0513 22.2106 30.9356 20.8908 32.0442 19.8349C33.1793 18.7526 34.4991 17.9343 36.0037 17.38C37.5347 16.8257 39.1845 16.5485 40.9531 16.5485C42.7217 16.5485 44.3583 16.8257 45.8629 17.38C47.3939 17.9343 48.7269 18.7526 49.862 19.8349C50.997 20.8908 51.8813 22.2106 52.5149 23.7944C53.1748 25.3782 53.5047 27.1996 53.5047 29.2585C53.5047 31.3175 53.188 33.152 52.5544 34.7622C51.9209 36.346 51.0366 37.6791 49.9016 38.7613C48.7929 39.8172 47.4731 40.6223 45.9421 41.1766C44.4111 41.731 42.7481 42.0081 40.9531 42.0081C39.1581 42.0081 37.4951 41.731 35.9641 41.1766C34.4331 40.5959 33.1133 39.7644 32.0046 38.6821C30.896 37.5999 30.0249 36.2668 29.3913 34.683C28.7578 33.0992 28.4411 31.2911 28.4411 29.2585ZM35.5682 29.2585C35.5682 31.6606 36.0565 33.4556 37.0332 34.6434C38.0099 35.8313 39.3165 36.4252 40.9531 36.4252C42.6161 36.4252 43.9359 35.8313 44.9126 34.6434C45.8893 33.4556 46.3776 31.6606 46.3776 29.2585C46.3776 26.8828 45.8893 25.101 44.9126 23.9132C43.9623 22.7253 42.6557 22.1314 40.9927 22.1314C39.3561 22.1314 38.0363 22.7253 37.0332 23.9132C36.0565 25.0746 35.5682 26.8564 35.5682 29.2585ZM55.6645 22.8441C55.4797 22.5538 55.3082 22.1578 55.1498 21.6563C54.9914 21.1547 54.9122 20.6268 54.9122 20.0725C54.9122 19.043 55.1366 18.3039 55.5853 17.8551C56.0605 17.4064 56.6676 17.182 57.4067 17.182H74.6701C74.8549 17.4724 75.0265 17.8683 75.1849 18.3699C75.3433 18.8714 75.4224 19.3993 75.4224 19.9537C75.4224 20.9831 75.1849 21.7223 74.7097 22.171C74.261 22.6197 73.6671 22.8441 72.928 22.8441H68.5329V41.137C68.2425 41.2162 67.7806 41.2954 67.1471 41.3746C66.54 41.4538 65.9328 41.4934 65.3257 41.4934C64.7186 41.4934 64.1775 41.4406 63.7023 41.335C63.2536 41.2558 62.8708 41.0974 62.5541 40.8599C62.2373 40.6223 61.9997 40.2923 61.8413 39.87C61.683 39.4476 61.6038 38.8933 61.6038 38.207V22.8441H55.6645ZM78.7747 20.9831C78.7747 19.8481 79.1047 18.9506 79.7646 18.2907C80.4245 17.6308 81.322 17.3008 82.4571 17.3008H95.5234C95.7082 17.5912 95.8666 17.9739 95.9986 18.4491C96.157 18.9242 96.2361 19.4257 96.2361 19.9537C96.2361 20.9568 96.0118 21.6695 95.563 22.0918C95.1407 22.5142 94.5732 22.7253 93.8604 22.7253H85.5059V26.4077H94.4148C94.5996 26.698 94.7579 27.0808 94.8899 27.5559C95.0483 28.0047 95.1275 28.493 95.1275 29.0209C95.1275 30.024 94.9163 30.7367 94.494 31.1591C94.0716 31.5814 93.5041 31.7926 92.7914 31.7926H85.5059V35.9501H95.6818C95.8666 36.2404 96.025 36.6232 96.157 37.0983C96.3153 37.5735 96.3945 38.075 96.3945 38.6029C96.3945 39.606 96.1702 40.3319 95.7214 40.7807C95.2991 41.203 94.7315 41.4142 94.0188 41.4142H82.4571C81.322 41.4142 80.4245 41.0842 79.7646 40.4243C79.1047 39.7644 78.7747 38.8669 78.7747 37.7319V20.9831Z" fill="#808080"/>
<path d="M98.7643 38.0882C98.7643 36.9795 99.1075 36.0557 99.7938 35.3166C100.48 34.5774 101.417 34.2079 102.605 34.2079C103.793 34.2079 104.73 34.5774 105.416 35.3166C106.103 36.0557 106.446 36.9795 106.446 38.0882C106.446 39.1969 106.103 40.1208 105.416 40.8599C104.73 41.599 103.793 41.9685 102.605 41.9685C101.417 41.9685 100.48 41.599 99.7938 40.8599C99.1075 40.1208 98.7643 39.1969 98.7643 38.0882Z" fill="url(#paint0_linear)"/>
<path d="M4.23106 54.4128C3.91836 54.3062 3.63409 54.1996 3.37824 54.093C3.1224 53.9793 2.90209 53.8443 2.71731 53.6879C2.53253 53.5316 2.38684 53.3468 2.28024 53.1336C2.18075 52.9133 2.131 52.6468 2.131 52.3341C2.131 51.73 2.36197 51.2467 2.82391 50.8843C3.29296 50.5218 3.94679 50.3406 4.78539 50.3406C5.09098 50.3406 5.37525 50.3619 5.63821 50.4046C5.90116 50.4472 6.12502 50.5147 6.3098 50.6071C6.50168 50.6924 6.65093 50.8061 6.75753 50.9483C6.86413 51.0833 6.91743 51.2432 6.91743 51.428C6.91743 51.6127 6.87479 51.7726 6.78951 51.9077C6.70423 52.0356 6.60118 52.1458 6.48036 52.2381C6.32401 52.1386 6.11436 52.0534 5.85141 51.9823C5.58846 51.9041 5.30063 51.865 4.98793 51.865C4.66813 51.865 4.4336 51.9112 4.28436 52.0036C4.13512 52.0889 4.0605 52.1991 4.0605 52.3341C4.0605 52.4407 4.10669 52.5295 4.19908 52.6006C4.29147 52.6645 4.43005 52.725 4.61483 52.7818L5.17982 52.963C5.84786 53.1762 6.35955 53.4499 6.71489 53.7839C7.07733 54.1108 7.25856 54.5585 7.25856 55.1271C7.25856 55.7311 7.02048 56.2215 6.54432 56.5982C6.06817 56.9677 5.36815 57.1525 4.44426 57.1525C4.11735 57.1525 3.81176 57.1241 3.52749 57.0672C3.25032 57.0175 3.00514 56.9428 2.79193 56.8434C2.58583 56.7367 2.42238 56.6088 2.30156 56.4596C2.18785 56.3032 2.131 56.1256 2.131 55.9266C2.131 55.7205 2.19141 55.5464 2.31222 55.4042C2.43304 55.255 2.56451 55.1413 2.70665 55.0631C2.90564 55.2194 3.14727 55.3545 3.43154 55.4682C3.72292 55.5819 4.03918 55.6387 4.3803 55.6387C4.72854 55.6387 4.97372 55.5854 5.11586 55.4788C5.25799 55.3722 5.32906 55.2479 5.32906 55.1057C5.32906 54.9636 5.27221 54.857 5.1585 54.7859C5.04479 54.7078 4.88489 54.6331 4.67879 54.5621L4.23106 54.4128ZM8.08772 50.3619C8.08772 50.0919 8.17656 49.8645 8.35423 49.6797C8.539 49.4949 8.78064 49.4025 9.07912 49.4025C9.37761 49.4025 9.61568 49.4949 9.79335 49.6797C9.97813 49.8645 10.0705 50.0919 10.0705 50.3619C10.0705 50.632 9.97813 50.8594 9.79335 51.0442C9.61568 51.229 9.37761 51.3214 9.07912 51.3214C8.78064 51.3214 8.539 51.229 8.35423 51.0442C8.17656 50.8594 8.08772 50.632 8.08772 50.3619ZM9.98524 56.9713C9.90706 56.9855 9.7898 57.0033 9.63345 57.0246C9.48421 57.053 9.33141 57.0672 9.17506 57.0672C9.01871 57.0672 8.87658 57.0566 8.74865 57.0352C8.62784 57.0139 8.52479 56.9713 8.43951 56.9073C8.35423 56.8434 8.28671 56.7581 8.23696 56.6515C8.19432 56.5378 8.173 56.3921 8.173 56.2144V51.8757C8.25118 51.8615 8.36489 51.8437 8.51413 51.8224C8.67048 51.794 8.82683 51.7798 8.98318 51.7798C9.13953 51.7798 9.27811 51.7904 9.39893 51.8117C9.52685 51.8331 9.63345 51.8757 9.71873 51.9397C9.80402 52.0036 9.86798 52.0925 9.91062 52.2062C9.96036 52.3128 9.98524 52.4549 9.98524 52.6326V56.9713ZM13.6228 51.6412C13.9142 51.6412 14.1984 51.6838 14.4756 51.7691C14.7599 51.8473 15.0051 51.9681 15.2112 52.1315C15.4244 51.9894 15.6624 51.8721 15.9254 51.7798C16.1954 51.6874 16.5188 51.6412 16.8955 51.6412C17.1655 51.6412 17.4285 51.6767 17.6843 51.7478C17.9473 51.8188 18.1782 51.9325 18.3772 52.0889C18.5833 52.2381 18.7468 52.4407 18.8676 52.6965C18.9884 52.9453 19.0488 53.2509 19.0488 53.6133V56.9713C18.9778 56.9926 18.8641 57.0139 18.7077 57.0352C18.5585 57.0566 18.4021 57.0672 18.2387 57.0672C18.0823 57.0672 17.9402 57.0566 17.8122 57.0352C17.6914 57.0139 17.5884 56.9713 17.5031 56.9073C17.4178 56.8434 17.3503 56.7581 17.3006 56.6515C17.2579 56.5378 17.2366 56.3921 17.2366 56.2144V53.6666C17.2366 53.4534 17.1762 53.3006 17.0554 53.2082C16.9346 53.1087 16.7711 53.059 16.565 53.059C16.4655 53.059 16.3589 53.0839 16.2452 53.1336C16.1315 53.1762 16.0462 53.2224 15.9894 53.2722C15.9965 53.3006 16 53.329 16 53.3575C16 53.3788 16 53.4001 16 53.4214V56.9713C15.9218 56.9926 15.8046 57.0139 15.6482 57.0352C15.499 57.0566 15.3462 57.0672 15.1898 57.0672C15.0335 57.0672 14.8913 57.0566 14.7634 57.0352C14.6426 57.0139 14.5396 56.9713 14.4543 56.9073C14.369 56.8434 14.3015 56.7581 14.2517 56.6515C14.2091 56.5378 14.1878 56.3921 14.1878 56.2144V53.6666C14.1878 53.4534 14.1203 53.3006 13.9852 53.2082C13.8573 53.1087 13.701 53.059 13.5162 53.059C13.3883 53.059 13.2781 53.0803 13.1857 53.1229C13.0933 53.1585 13.0152 53.194 12.9512 53.2295V56.9713C12.8801 56.9926 12.7664 57.0139 12.6101 57.0352C12.4608 57.0566 12.3045 57.0672 12.141 57.0672C11.9847 57.0672 11.8425 57.0566 11.7146 57.0352C11.5938 57.0139 11.4907 56.9713 11.4055 56.9073C11.3202 56.8434 11.2527 56.7581 11.2029 56.6515C11.1603 56.5378 11.139 56.3921 11.139 56.2144V52.995C11.139 52.8031 11.178 52.6503 11.2562 52.5366C11.3415 52.4229 11.4552 52.3163 11.5973 52.2168C11.839 52.0463 12.1375 51.9077 12.4928 51.8011C12.8552 51.6945 13.2319 51.6412 13.6228 51.6412ZM22.5316 51.6412C22.958 51.6412 23.3524 51.698 23.7148 51.8117C24.0844 51.9183 24.4006 52.0853 24.6636 52.3128C24.9265 52.5402 25.1326 52.828 25.2819 53.1762C25.4311 53.5174 25.5057 53.926 25.5057 54.4022C25.5057 54.857 25.4418 55.255 25.3139 55.5961C25.1859 55.9372 25.0047 56.2251 24.7702 56.4596C24.5357 56.687 24.2514 56.8576 23.9174 56.9713C23.5905 57.085 23.2245 57.1418 22.8194 57.1418C22.5138 57.1418 22.2295 57.0956 21.9666 57.0033V58.7728C21.8955 58.7942 21.7818 58.8155 21.6254 58.8368C21.4691 58.8652 21.3092 58.8795 21.1457 58.8795C20.9894 58.8795 20.8472 58.8688 20.7193 58.8475C20.5985 58.8261 20.4955 58.7835 20.4102 58.7195C20.3249 58.6556 20.2609 58.5668 20.2183 58.453C20.1756 58.3464 20.1543 58.2043 20.1543 58.0266V52.9097C20.1543 52.7179 20.1934 52.5615 20.2716 52.4407C20.3569 52.3199 20.4706 52.2097 20.6127 52.1102C20.833 51.9681 21.1066 51.8544 21.4336 51.7691C21.7605 51.6838 22.1265 51.6412 22.5316 51.6412ZM22.5529 55.7134C23.2849 55.7134 23.6509 55.2763 23.6509 54.4022C23.6509 53.9473 23.5585 53.6098 23.3737 53.3894C23.196 53.1691 22.9366 53.059 22.5955 53.059C22.4605 53.059 22.3397 53.0767 22.2331 53.1123C22.1265 53.1407 22.0341 53.1762 21.9559 53.2189V55.5641C22.0412 55.6068 22.1336 55.6423 22.2331 55.6707C22.3326 55.6992 22.4392 55.7134 22.5529 55.7134ZM28.2343 56.9713C28.1562 56.9855 28.0389 57.0033 27.8826 57.0246C27.7333 57.053 27.5805 57.0672 27.4242 57.0672C27.2678 57.0672 27.1257 57.0566 26.9978 57.0352C26.8769 57.0139 26.7739 56.9713 26.6886 56.9073C26.6033 56.8434 26.5358 56.7581 26.4861 56.6515C26.4434 56.5378 26.4221 56.3921 26.4221 56.2144V50.0315C26.5003 50.0173 26.614 49.9995 26.7632 49.9782C26.9196 49.9498 27.0759 49.9355 27.2323 49.9355C27.3886 49.9355 27.5272 49.9462 27.648 49.9675C27.776 49.9888 27.8826 50.0315 27.9678 50.0954C28.0531 50.1594 28.1171 50.2482 28.1597 50.3619C28.2095 50.4685 28.2343 50.6107 28.2343 50.7884V56.9713ZM32.1176 57.1525C31.6983 57.1525 31.3074 57.0956 30.945 56.9819C30.5896 56.8611 30.2769 56.6834 30.0069 56.4489C29.7439 56.2144 29.5343 55.9195 29.3779 55.5641C29.2287 55.2088 29.154 54.793 29.154 54.3169C29.154 53.8478 29.2287 53.4463 29.3779 53.1123C29.5343 52.7712 29.7368 52.494 29.9855 52.2808C30.2343 52.0605 30.5185 51.9006 30.8384 51.8011C31.1582 51.6945 31.4851 51.6412 31.8191 51.6412C32.1958 51.6412 32.5369 51.698 32.8425 51.8117C33.1552 51.9254 33.4217 52.0818 33.642 52.2808C33.8694 52.4798 34.0435 52.7179 34.1643 52.995C34.2923 53.2722 34.3562 53.5742 34.3562 53.9011C34.3562 54.1428 34.2887 54.3275 34.1537 54.4555C34.0186 54.5834 33.8303 54.6651 33.5887 54.7006L30.9556 55.0951C31.0338 55.3296 31.1937 55.5073 31.4353 55.6281C31.677 55.7418 31.9541 55.7987 32.2668 55.7987C32.5582 55.7987 32.8318 55.7631 33.0877 55.692C33.3506 55.6139 33.5638 55.525 33.7273 55.4255C33.841 55.4966 33.9369 55.5961 34.0151 55.724C34.0933 55.852 34.1324 55.987 34.1324 56.1291C34.1324 56.4489 33.9831 56.687 33.6846 56.8434C33.4572 56.9642 33.2014 57.0459 32.9171 57.0885C32.6328 57.1312 32.3663 57.1525 32.1176 57.1525ZM31.8191 52.963C31.6485 52.963 31.4993 52.9915 31.3714 53.0483C31.2505 53.1052 31.1511 53.1798 31.0729 53.2722C30.9947 53.3575 30.9343 53.457 30.8917 53.5707C30.8561 53.6773 30.8348 53.7874 30.8277 53.9011L32.6506 53.6026C32.6293 53.4605 32.5511 53.3184 32.4161 53.1762C32.281 53.0341 32.082 52.963 31.8191 52.963ZM34.9087 56.1185C34.9087 55.82 35.0011 55.5712 35.1859 55.3722C35.3707 55.1733 35.623 55.0738 35.9428 55.0738C36.2626 55.0738 36.5149 55.1733 36.6996 55.3722C36.8844 55.5712 36.9768 55.82 36.9768 56.1185C36.9768 56.4169 36.8844 56.6657 36.6996 56.8647C36.5149 57.0637 36.2626 57.1632 35.9428 57.1632C35.623 57.1632 35.3707 57.0637 35.1859 56.8647C35.0011 56.6657 34.9087 56.4169 34.9087 56.1185ZM41.8749 54.4128C41.5622 54.3062 41.2779 54.1996 41.0221 54.093C40.7663 53.9793 40.5459 53.8443 40.3612 53.6879C40.1764 53.5316 40.0307 53.3468 39.9241 53.1336C39.8246 52.9133 39.7749 52.6468 39.7749 52.3341C39.7749 51.73 40.0058 51.2467 40.4678 50.8843C40.9368 50.5218 41.5906 50.3406 42.4292 50.3406C42.7348 50.3406 43.0191 50.3619 43.2821 50.4046C43.545 50.4472 43.7689 50.5147 43.9537 50.6071C44.1455 50.6924 44.2948 50.8061 44.4014 50.9483C44.508 51.0833 44.5613 51.2432 44.5613 51.428C44.5613 51.6127 44.5186 51.7726 44.4334 51.9077C44.3481 52.0356 44.245 52.1458 44.1242 52.2381C43.9679 52.1386 43.7582 52.0534 43.4953 51.9823C43.2323 51.9041 42.9445 51.865 42.6318 51.865C42.312 51.865 42.0775 51.9112 41.9282 52.0036C41.779 52.0889 41.7044 52.1991 41.7044 52.3341C41.7044 52.4407 41.7505 52.5295 41.8429 52.6006C41.9353 52.6645 42.0739 52.725 42.2587 52.7818L42.8237 52.963C43.4917 53.1762 44.0034 53.4499 44.3587 53.7839C44.7212 54.1108 44.9024 54.5585 44.9024 55.1271C44.9024 55.7311 44.6643 56.2215 44.1882 56.5982C43.712 56.9677 43.012 57.1525 42.0881 57.1525C41.7612 57.1525 41.4556 57.1241 41.1713 57.0672C40.8942 57.0175 40.649 56.9428 40.4358 56.8434C40.2297 56.7367 40.0662 56.6088 39.9454 56.4596C39.8317 56.3032 39.7749 56.1256 39.7749 55.9266C39.7749 55.7205 39.8353 55.5464 39.9561 55.4042C40.0769 55.255 40.2084 55.1413 40.3505 55.0631C40.5495 55.2194 40.7911 55.3545 41.0754 55.4682C41.3668 55.5819 41.683 55.6387 42.0242 55.6387C42.3724 55.6387 42.6176 55.5854 42.7597 55.4788C42.9018 55.3722 42.9729 55.2479 42.9729 55.1057C42.9729 54.9636 42.9161 54.857 42.8024 54.7859C42.6886 54.7078 42.5287 54.6331 42.3226 54.5621L41.8749 54.4128ZM51.1571 54.3915C51.1571 54.8321 51.0896 55.2266 50.9546 55.5748C50.8195 55.9159 50.6277 56.2037 50.3789 56.4383C50.1373 56.6728 49.8459 56.8505 49.5048 56.9713C49.1637 57.0921 48.7834 57.1525 48.3641 57.1525C47.9448 57.1525 47.5646 57.0885 47.2235 56.9606C46.8824 56.8327 46.5874 56.6515 46.3387 56.4169C46.0971 56.1753 45.9087 55.8839 45.7737 55.5428C45.6387 55.2017 45.5712 54.8179 45.5712 54.3915C45.5712 53.9722 45.6387 53.592 45.7737 53.2509C45.9087 52.9097 46.0971 52.6219 46.3387 52.3874C46.5874 52.1458 46.8824 51.961 47.2235 51.8331C47.5646 51.7051 47.9448 51.6412 48.3641 51.6412C48.7834 51.6412 49.1637 51.7087 49.5048 51.8437C49.8459 51.9716 50.1373 52.1564 50.3789 52.398C50.6277 52.6326 50.8195 52.9204 50.9546 53.2615C51.0896 53.6026 51.1571 53.9793 51.1571 54.3915ZM47.426 54.3915C47.426 54.825 47.5078 55.159 47.6712 55.3936C47.8418 55.621 48.0763 55.7347 48.3748 55.7347C48.6733 55.7347 48.9007 55.6174 49.0571 55.3829C49.2205 55.1484 49.3022 54.8179 49.3022 54.3915C49.3022 53.9651 49.2205 53.6382 49.0571 53.4108C48.8936 53.1762 48.6626 53.059 48.3641 53.059C48.0657 53.059 47.8347 53.1762 47.6712 53.4108C47.5078 53.6382 47.426 53.9651 47.426 54.3915ZM53.8535 56.9713C53.7824 56.9926 53.6687 57.0139 53.5124 57.0352C53.3631 57.0566 53.2068 57.0672 53.0433 57.0672C52.887 57.0672 52.7448 57.0566 52.6169 57.0352C52.4961 57.0139 52.393 56.9713 52.3078 56.9073C52.2225 56.8434 52.155 56.7581 52.1052 56.6515C52.0626 56.5378 52.0413 56.3921 52.0413 56.2144V53.0163C52.0413 52.8529 52.0697 52.7143 52.1265 52.6006C52.1905 52.4798 52.2793 52.3732 52.393 52.2808C52.5067 52.1884 52.6453 52.1067 52.8088 52.0356C52.9794 51.9574 53.1606 51.8899 53.3525 51.8331C53.5443 51.7762 53.7433 51.7336 53.9494 51.7051C54.1555 51.6696 54.3616 51.6518 54.5677 51.6518C54.9088 51.6518 55.1789 51.7193 55.3779 51.8544C55.5769 51.9823 55.6764 52.1955 55.6764 52.494C55.6764 52.5935 55.6622 52.693 55.6337 52.7925C55.6053 52.8849 55.5698 52.9701 55.5271 53.0483C55.3779 53.0483 55.2251 53.0554 55.0688 53.0696C54.9124 53.0839 54.7596 53.1052 54.6104 53.1336C54.4611 53.162 54.319 53.194 54.184 53.2295C54.056 53.258 53.9459 53.2935 53.8535 53.3361V56.9713ZM58.2362 55.2017C58.2362 55.3865 58.2931 55.5179 58.4068 55.5961C58.5276 55.6743 58.6946 55.7134 58.9078 55.7134C59.0144 55.7134 59.1246 55.7063 59.2383 55.692C59.352 55.6707 59.4515 55.6459 59.5368 55.6174C59.6008 55.6956 59.6541 55.7844 59.6967 55.8839C59.7464 55.9763 59.7713 56.09 59.7713 56.2251C59.7713 56.4951 59.6683 56.7154 59.4622 56.886C59.2632 57.0566 58.9078 57.1418 58.3962 57.1418C57.7708 57.1418 57.2875 56.9997 56.9464 56.7154C56.6123 56.4312 56.4453 55.9692 56.4453 55.3296V50.767C56.5235 50.7457 56.6337 50.7244 56.7758 50.7031C56.925 50.6746 57.0814 50.6604 57.2448 50.6604C57.5575 50.6604 57.7992 50.7173 57.9697 50.831C58.1474 50.9376 58.2362 51.1686 58.2362 51.5239V52.2062H59.6327C59.6754 52.2843 59.7145 52.3838 59.75 52.5046C59.7926 52.6184 59.814 52.7463 59.814 52.8884C59.814 53.1372 59.7571 53.3184 59.6434 53.4321C59.5368 53.5387 59.3911 53.592 59.2063 53.592H58.2362V55.2017ZM63.3695 57.1525C62.9502 57.1525 62.5593 57.0956 62.1969 56.9819C61.8415 56.8611 61.5288 56.6834 61.2588 56.4489C60.9958 56.2144 60.7862 55.9195 60.6298 55.5641C60.4806 55.2088 60.4059 54.793 60.4059 54.3169C60.4059 53.8478 60.4806 53.4463 60.6298 53.1123C60.7862 52.7712 60.9887 52.494 61.2374 52.2808C61.4862 52.0605 61.7704 51.9006 62.0902 51.8011C62.4101 51.6945 62.737 51.6412 63.071 51.6412C63.4476 51.6412 63.7888 51.698 64.0944 51.8117C64.4071 51.9254 64.6736 52.0818 64.8939 52.2808C65.1213 52.4798 65.2954 52.7179 65.4162 52.995C65.5442 53.2722 65.6081 53.5742 65.6081 53.9011C65.6081 54.1428 65.5406 54.3275 65.4056 54.4555C65.2705 54.5834 65.0822 54.6651 64.8406 54.7006L62.2075 55.0951C62.2857 55.3296 62.4456 55.5073 62.6872 55.6281C62.9289 55.7418 63.206 55.7987 63.5187 55.7987C63.8101 55.7987 64.0837 55.7631 64.3396 55.692C64.6025 55.6139 64.8157 55.525 64.9792 55.4255C65.0929 55.4966 65.1888 55.5961 65.267 55.724C65.3452 55.852 65.3843 55.987 65.3843 56.1291C65.3843 56.4489 65.235 56.687 64.9365 56.8434C64.7091 56.9642 64.4533 57.0459 64.169 57.0885C63.8847 57.1312 63.6182 57.1525 63.3695 57.1525ZM63.071 52.963C62.9004 52.963 62.7512 52.9915 62.6233 53.0483C62.5024 53.1052 62.4029 53.1798 62.3248 53.2722C62.2466 53.3575 62.1862 53.457 62.1436 53.5707C62.108 53.6773 62.0867 53.7874 62.0796 53.9011L63.9025 53.6026C63.8812 53.4605 63.803 53.3184 63.668 53.1762C63.5329 53.0341 63.3339 52.963 63.071 52.963ZM66.2566 54.3915C66.2566 53.9225 66.3276 53.5174 66.4698 53.1762C66.6119 52.828 66.8073 52.5402 67.0561 52.3128C67.3119 52.0853 67.6068 51.9183 67.9409 51.8117C68.282 51.698 68.648 51.6412 69.0389 51.6412C69.181 51.6412 69.3196 51.6554 69.4546 51.6838C69.5896 51.7051 69.6998 51.7336 69.7851 51.7691V50.0421C69.8561 50.0208 69.9699 49.9995 70.1262 49.9782C70.2826 49.9498 70.4425 49.9355 70.6059 49.9355C70.7623 49.9355 70.9008 49.9462 71.0217 49.9675C71.1496 49.9888 71.2562 50.0315 71.3415 50.0954C71.4268 50.1594 71.4907 50.2482 71.5334 50.3619C71.576 50.4685 71.5973 50.6107 71.5973 50.7884V55.8413C71.5973 56.1753 71.441 56.4418 71.1283 56.6408C70.9222 56.7758 70.6557 56.8931 70.3288 56.9926C70.0018 57.0992 69.6252 57.1525 69.1988 57.1525C68.7368 57.1525 68.3211 57.0885 67.9515 56.9606C67.5891 56.8327 67.2799 56.6479 67.0241 56.4063C66.7753 56.1647 66.5835 55.8768 66.4484 55.5428C66.3205 55.2017 66.2566 54.8179 66.2566 54.3915ZM69.2841 53.059C68.9003 53.059 68.6054 53.1691 68.3993 53.3894C68.1932 53.6098 68.0901 53.9438 68.0901 54.3915C68.0901 54.8321 68.1861 55.1661 68.3779 55.3936C68.5698 55.6139 68.847 55.724 69.2094 55.724C69.3374 55.724 69.4511 55.7063 69.5506 55.6707C69.6572 55.6281 69.7389 55.5819 69.7957 55.5321V53.1869C69.6536 53.1016 69.483 53.059 69.2841 53.059ZM72.4068 56.1185C72.4068 55.82 72.4992 55.5712 72.684 55.3722C72.8688 55.1733 73.1211 55.0738 73.4409 55.0738C73.7607 55.0738 74.013 55.1733 74.1977 55.3722C74.3825 55.5712 74.4749 55.82 74.4749 56.1185C74.4749 56.4169 74.3825 56.6657 74.1977 56.8647C74.013 57.0637 73.7607 57.1632 73.4409 57.1632C73.1211 57.1632 72.8688 57.0637 72.684 56.8647C72.4992 56.6657 72.4068 56.4169 72.4068 56.1185ZM79.373 54.4128C79.0603 54.3062 78.7761 54.1996 78.5202 54.093C78.2644 53.9793 78.0441 53.8443 77.8593 53.6879C77.6745 53.5316 77.5288 53.3468 77.4222 53.1336C77.3227 52.9133 77.273 52.6468 77.273 52.3341C77.273 51.73 77.5039 51.2467 77.9659 50.8843C78.4349 50.5218 79.0888 50.3406 79.9274 50.3406C80.233 50.3406 80.5172 50.3619 80.7802 50.4046C81.0431 50.4472 81.267 50.5147 81.4518 50.6071C81.6437 50.6924 81.7929 50.8061 81.8995 50.9483C82.0061 51.0833 82.0594 51.2432 82.0594 51.428C82.0594 51.6127 82.0168 51.7726 81.9315 51.9077C81.8462 52.0356 81.7431 52.1458 81.6223 52.2381C81.466 52.1386 81.2563 52.0534 80.9934 51.9823C80.7304 51.9041 80.4426 51.865 80.1299 51.865C79.8101 51.865 79.5756 51.9112 79.4263 52.0036C79.2771 52.0889 79.2025 52.1991 79.2025 52.3341C79.2025 52.4407 79.2487 52.5295 79.341 52.6006C79.4334 52.6645 79.572 52.725 79.7568 52.7818L80.3218 52.963C80.9898 53.1762 81.5015 53.4499 81.8569 53.7839C82.2193 54.1108 82.4005 54.5585 82.4005 55.1271C82.4005 55.7311 82.1624 56.2215 81.6863 56.5982C81.2101 56.9677 80.5101 57.1525 79.5862 57.1525C79.2593 57.1525 78.9537 57.1241 78.6695 57.0672C78.3923 57.0175 78.1471 56.9428 77.9339 56.8434C77.7278 56.7367 77.5643 56.6088 77.4435 56.4596C77.3298 56.3032 77.273 56.1256 77.273 55.9266C77.273 55.7205 77.3334 55.5464 77.4542 55.4042C77.575 55.255 77.7065 55.1413 77.8486 55.0631C78.0476 55.2194 78.2892 55.3545 78.5735 55.4682C78.8649 55.5819 79.1811 55.6387 79.5223 55.6387C79.8705 55.6387 80.1157 55.5854 80.2578 55.4788C80.4 55.3722 80.471 55.2479 80.471 55.1057C80.471 54.9636 80.4142 54.857 80.3005 54.7859C80.1868 54.7078 80.0269 54.6331 79.8208 54.5621L79.373 54.4128ZM83.2411 51.8757C83.3122 51.8544 83.4223 51.8331 83.5716 51.8117C83.7279 51.7904 83.8878 51.7798 84.0513 51.7798C84.2076 51.7798 84.3462 51.7904 84.467 51.8117C84.5949 51.8331 84.7015 51.8757 84.7868 51.9397C84.8721 52.0036 84.9361 52.0925 84.9787 52.2062C85.0285 52.3128 85.0533 52.4549 85.0533 52.6326V54.9245C85.0533 55.2159 85.1244 55.4255 85.2665 55.5535C85.4087 55.6743 85.6148 55.7347 85.8848 55.7347C86.0483 55.7347 86.1798 55.7205 86.2793 55.692C86.3859 55.6636 86.4676 55.6352 86.5244 55.6068V51.8757C86.5955 51.8544 86.7057 51.8331 86.8549 51.8117C87.0113 51.7904 87.1712 51.7798 87.3346 51.7798C87.491 51.7798 87.6296 51.7904 87.7504 51.8117C87.8783 51.8331 87.9849 51.8757 88.0702 51.9397C88.1555 52.0036 88.2194 52.0925 88.2621 52.2062C88.3118 52.3128 88.3367 52.4549 88.3367 52.6326V55.8733C88.3367 56.2286 88.1874 56.4951 87.8889 56.6728C87.6402 56.8291 87.3417 56.9464 86.9935 57.0246C86.6524 57.1099 86.2793 57.1525 85.8742 57.1525C85.4904 57.1525 85.1351 57.1099 84.8081 57.0246C84.4883 56.9393 84.2112 56.8078 83.9767 56.6301C83.7421 56.4525 83.5609 56.2251 83.433 55.9479C83.3051 55.6636 83.2411 55.3225 83.2411 54.9245V51.8757ZM91.8229 51.6412C92.2493 51.6412 92.6437 51.698 93.0062 51.8117C93.3757 51.9183 93.692 52.0853 93.9549 52.3128C94.2179 52.5402 94.424 52.828 94.5732 53.1762C94.7225 53.5174 94.7971 53.926 94.7971 54.4022C94.7971 54.857 94.7331 55.255 94.6052 55.5961C94.4773 55.9372 94.2961 56.2251 94.0615 56.4596C93.827 56.687 93.5427 56.8576 93.2087 56.9713C92.8818 57.085 92.5158 57.1418 92.1107 57.1418C91.8051 57.1418 91.5209 57.0956 91.2579 57.0033V58.7728C91.1868 58.7942 91.0731 58.8155 90.9168 58.8368C90.7604 58.8652 90.6005 58.8795 90.4371 58.8795C90.2807 58.8795 90.1386 58.8688 90.0107 58.8475C89.8898 58.8261 89.7868 58.7835 89.7015 58.7195C89.6162 58.6556 89.5523 58.5668 89.5096 58.453C89.467 58.3464 89.4457 58.2043 89.4457 58.0266V52.9097C89.4457 52.7179 89.4848 52.5615 89.5629 52.4407C89.6482 52.3199 89.7619 52.2097 89.9041 52.1102C90.1244 51.9681 90.398 51.8544 90.7249 51.7691C91.0518 51.6838 91.4178 51.6412 91.8229 51.6412ZM91.8442 55.7134C92.5762 55.7134 92.9422 55.2763 92.9422 54.4022C92.9422 53.9473 92.8498 53.6098 92.6651 53.3894C92.4874 53.1691 92.228 53.059 91.8869 53.059C91.7518 53.059 91.631 53.0767 91.5244 53.1123C91.4178 53.1407 91.3254 53.1762 91.2472 53.2189V55.5641C91.3325 55.6068 91.4249 55.6423 91.5244 55.6707C91.6239 55.6992 91.7305 55.7134 91.8442 55.7134ZM98.4211 57.1525C98.0018 57.1525 97.611 57.0956 97.2485 56.9819C96.8932 56.8611 96.5805 56.6834 96.3104 56.4489C96.0475 56.2144 95.8378 55.9195 95.6815 55.5641C95.5322 55.2088 95.4576 54.793 95.4576 54.3169C95.4576 53.8478 95.5322 53.4463 95.6815 53.1123C95.8378 52.7712 96.0404 52.494 96.2891 52.2808C96.5378 52.0605 96.8221 51.9006 97.1419 51.8011C97.4617 51.6945 97.7886 51.6412 98.1227 51.6412C98.4993 51.6412 98.8404 51.698 99.146 51.8117C99.4587 51.9254 99.7252 52.0818 99.9456 52.2808C100.173 52.4798 100.347 52.7179 100.468 52.995C100.596 53.2722 100.66 53.5742 100.66 53.9011C100.66 54.1428 100.592 54.3275 100.457 54.4555C100.322 54.5834 100.134 54.6651 99.8923 54.7006L97.2592 55.0951C97.3374 55.3296 97.4973 55.5073 97.7389 55.6281C97.9805 55.7418 98.2577 55.7987 98.5704 55.7987C98.8618 55.7987 99.1354 55.7631 99.3912 55.692C99.6542 55.6139 99.8674 55.525 100.031 55.4255C100.145 55.4966 100.24 55.5961 100.319 55.724C100.397 55.852 100.436 55.987 100.436 56.1291C100.436 56.4489 100.287 56.687 99.9882 56.8434C99.7608 56.9642 99.5049 57.0459 99.2207 57.0885C98.9364 57.1312 98.6699 57.1525 98.4211 57.1525ZM98.1227 52.963C97.9521 52.963 97.8029 52.9915 97.6749 53.0483C97.5541 53.1052 97.4546 53.1798 97.3764 53.2722C97.2983 53.3575 97.2379 53.457 97.1952 53.5707C97.1597 53.6773 97.1384 53.7874 97.1313 53.9011L98.9542 53.6026C98.9328 53.4605 98.8547 53.3184 98.7196 53.1762C98.5846 53.0341 98.3856 52.963 98.1227 52.963ZM103.344 56.9713C103.273 56.9926 103.16 57.0139 103.003 57.0352C102.854 57.0566 102.698 57.0672 102.534 57.0672C102.378 57.0672 102.236 57.0566 102.108 57.0352C101.987 57.0139 101.884 56.9713 101.799 56.9073C101.713 56.8434 101.646 56.7581 101.596 56.6515C101.553 56.5378 101.532 56.3921 101.532 56.2144V53.0163C101.532 52.8529 101.561 52.7143 101.617 52.6006C101.681 52.4798 101.77 52.3732 101.884 52.2808C101.998 52.1884 102.136 52.1067 102.3 52.0356C102.47 51.9574 102.651 51.8899 102.843 51.8331C103.035 51.7762 103.234 51.7336 103.44 51.7051C103.646 51.6696 103.852 51.6518 104.059 51.6518C104.4 51.6518 104.67 51.7193 104.869 51.8544C105.068 51.9823 105.167 52.1955 105.167 52.494C105.167 52.5935 105.153 52.693 105.125 52.7925C105.096 52.8849 105.061 52.9701 105.018 53.0483C104.869 53.0483 104.716 53.0554 104.56 53.0696C104.403 53.0839 104.25 53.1052 104.101 53.1336C103.952 53.162 103.81 53.194 103.675 53.2295C103.547 53.258 103.437 53.2935 103.344 53.3361V56.9713Z" fill="#808080"/>
<defs>
<linearGradient id="paint0_linear" x1="54.2441" y1="0.29541" x2="54.2441" y2="62.7338" gradientUnits="userSpaceOnUse">
<stop stop-color="#6A28F5"/>
<stop offset="1" stop-color="#FF00D6"/>
</linearGradient>
</defs>
</svg>
