<svg width="109" height="63" viewBox="0 0 109 63" fill="none" xmlns="http://www.w3.org/2000/svg">
<path d="M24.3114 40.4639C23.9418 40.8335 23.4007 41.1106 22.688 41.2954C22.0017 41.5066 21.1702 41.6122 20.1935 41.6122C19.2168 41.6122 18.2929 41.467 17.4218 41.1766C16.5507 40.8863 15.838 40.1867 15.2837 39.0781L11.3638 31.0799C10.9678 30.2616 10.6115 29.4961 10.2947 28.7834C9.97795 28.0443 9.6348 27.1996 9.26524 26.2493L9.02767 26.2889C9.13326 27.7143 9.18605 29.1661 9.18605 30.6443C9.21245 32.1226 9.22565 33.5744 9.22565 34.9998V41.137C8.93528 41.2162 8.48654 41.2954 7.87942 41.3746C7.29869 41.4538 6.71796 41.4934 6.13723 41.4934C5.55651 41.4934 5.04177 41.4538 4.59303 41.3746C4.14428 41.2954 3.77473 41.137 3.48436 40.8995C3.194 40.6619 2.96963 40.3451 2.81125 39.9492C2.65287 39.5268 2.57368 38.9857 2.57368 38.3258V18.5283C2.94323 18.0003 3.51076 17.6044 4.27627 17.3404C5.04177 17.0764 5.86007 16.9445 6.73116 16.9445C7.70784 16.9445 8.63172 17.1028 9.50281 17.4196C10.4003 17.71 11.113 18.3963 11.6409 19.4785L15.6005 27.4767C15.9964 28.295 16.3528 29.0737 16.6695 29.8128C16.9863 30.5256 17.3294 31.3571 17.699 32.3073L17.897 32.2677C17.7914 30.8423 17.7254 29.4169 17.699 27.9915C17.6726 26.5661 17.6594 25.1406 17.6594 23.7152V17.3008C17.9498 17.2216 18.3853 17.1424 18.966 17.0632C19.5732 16.984 20.1671 16.9445 20.7478 16.9445C21.9093 16.9445 22.7936 17.1556 23.4007 17.578C24.0078 17.9739 24.3114 18.8186 24.3114 20.1121V40.4639ZM28.2594 29.2585C28.2594 27.1996 28.5762 25.3782 29.2097 23.7944C29.8696 22.2106 30.7539 20.8908 31.8626 19.8349C32.9976 18.7526 34.3175 17.9343 35.8221 17.38C37.3531 16.8257 39.0029 16.5485 40.7715 16.5485C42.54 16.5485 44.1766 16.8257 45.6812 17.38C47.2123 17.9343 48.5453 18.7526 49.6803 19.8349C50.8154 20.8908 51.6997 22.2106 52.3332 23.7944C52.9931 25.3782 53.3231 27.1996 53.3231 29.2585C53.3231 31.3175 53.0063 33.152 52.3728 34.7622C51.7393 36.346 50.855 37.6791 49.7199 38.7613C48.6113 39.8172 47.2914 40.6223 45.7604 41.1766C44.2294 41.731 42.5664 42.0081 40.7715 42.0081C38.9765 42.0081 37.3135 41.731 35.7825 41.1766C34.2515 40.5959 32.9316 39.7644 31.823 38.6821C30.7143 37.5999 29.8432 36.2668 29.2097 34.683C28.5762 33.0992 28.2594 31.2911 28.2594 29.2585ZM35.3865 29.2585C35.3865 31.6606 35.8749 33.4556 36.8515 34.6434C37.8282 35.8313 39.1349 36.4252 40.7715 36.4252C42.4345 36.4252 43.7543 35.8313 44.731 34.6434C45.7076 33.4556 46.196 31.6606 46.196 29.2585C46.196 26.8828 45.7076 25.101 44.731 23.9132C43.7807 22.7253 42.474 22.1314 40.8111 22.1314C39.1745 22.1314 37.8546 22.7253 36.8515 23.9132C35.8749 25.0746 35.3865 26.8564 35.3865 29.2585ZM55.4829 22.8441C55.2981 22.5538 55.1265 22.1578 54.9681 21.6563C54.8098 21.1547 54.7306 20.6268 54.7306 20.0725C54.7306 19.043 54.9549 18.3039 55.4037 17.8551C55.8788 17.4064 56.486 17.182 57.2251 17.182H74.4885C74.6733 17.4724 74.8449 17.8683 75.0032 18.3699C75.1616 18.8714 75.2408 19.3993 75.2408 19.9537C75.2408 20.9831 75.0032 21.7223 74.5281 22.171C74.0794 22.6197 73.4854 22.8441 72.7463 22.8441H68.3513V41.137C68.0609 41.2162 67.599 41.2954 66.9654 41.3746C66.3583 41.4538 65.7512 41.4934 65.1441 41.4934C64.5369 41.4934 63.9958 41.4406 63.5207 41.335C63.0719 41.2558 62.6892 41.0974 62.3724 40.8599C62.0557 40.6223 61.8181 40.2923 61.6597 39.87C61.5013 39.4476 61.4221 38.8933 61.4221 38.207V22.8441H55.4829ZM78.5931 20.9831C78.5931 19.8481 78.923 18.9506 79.583 18.2907C80.2429 17.6308 81.1404 17.3008 82.2754 17.3008H95.3418C95.5266 17.5912 95.685 17.9739 95.8169 18.4491C95.9753 18.9242 96.0545 19.4257 96.0545 19.9537C96.0545 20.9568 95.8301 21.6695 95.3814 22.0918C94.959 22.5142 94.3915 22.7253 93.6788 22.7253H85.3242V26.4077H94.2331C94.4179 26.698 94.5763 27.0808 94.7083 27.5559C94.8667 28.0047 94.9458 28.493 94.9458 29.0209C94.9458 30.024 94.7347 30.7367 94.3123 31.1591C93.89 31.5814 93.3224 31.7926 92.6097 31.7926H85.3242V35.9501H95.5002C95.685 36.2404 95.8433 36.6232 95.9753 37.0983C96.1337 37.5735 96.2129 38.075 96.2129 38.6029C96.2129 39.606 95.9885 40.3319 95.5398 40.7807C95.1174 41.203 94.5499 41.4142 93.8372 41.4142H82.2754C81.1404 41.4142 80.2429 41.0842 79.583 40.4243C78.923 39.7644 78.5931 38.8669 78.5931 37.7319V20.9831Z" fill="white"/>
<path d="M98.5827 38.0882C98.5827 36.9795 98.9259 36.0557 99.6122 35.3166C100.298 34.5774 101.236 34.2079 102.423 34.2079C103.611 34.2079 104.548 34.5774 105.235 35.3166C105.921 36.0557 106.264 36.9795 106.264 38.0882C106.264 39.1969 105.921 40.1208 105.235 40.8599C104.548 41.599 103.611 41.9685 102.423 41.9685C101.236 41.9685 100.298 41.599 99.6122 40.8599C98.9259 40.1208 98.5827 39.1969 98.5827 38.0882Z" fill="url(#paint0_linear)"/>
<path d="M4.04893 54.4128C3.73623 54.3062 3.45196 54.1996 3.19611 54.093C2.94027 53.9793 2.71996 53.8443 2.53518 53.6879C2.3504 53.5316 2.20471 53.3468 2.09811 53.1336C1.99862 52.9133 1.94887 52.6468 1.94887 52.3341C1.94887 51.73 2.17984 51.2467 2.64178 50.8843C3.11083 50.5218 3.76466 50.3406 4.60326 50.3406C4.90885 50.3406 5.19313 50.3619 5.45608 50.4046C5.71903 50.4472 5.94289 50.5147 6.12767 50.6071C6.31955 50.6924 6.4688 50.8061 6.5754 50.9483C6.682 51.0833 6.7353 51.2432 6.7353 51.428C6.7353 51.6127 6.69266 51.7726 6.60738 51.9077C6.5221 52.0356 6.41905 52.1458 6.29823 52.2381C6.14188 52.1386 5.93223 52.0534 5.66928 51.9823C5.40633 51.9041 5.1185 51.865 4.8058 51.865C4.486 51.865 4.25147 51.9112 4.10223 52.0036C3.95299 52.0889 3.87837 52.1991 3.87837 52.3341C3.87837 52.4407 3.92456 52.5295 4.01695 52.6006C4.10934 52.6645 4.24792 52.725 4.4327 52.7818L4.99769 52.963C5.66573 53.1762 6.17742 53.4499 6.53276 53.7839C6.89521 54.1108 7.07643 54.5585 7.07643 55.1271C7.07643 55.7311 6.83835 56.2215 6.3622 56.5982C5.88604 56.9677 5.18602 57.1525 4.26213 57.1525C3.93522 57.1525 3.62963 57.1241 3.34536 57.0672C3.06819 57.0175 2.82301 56.9428 2.6098 56.8434C2.4037 56.7367 2.24025 56.6088 2.11943 56.4596C2.00572 56.3032 1.94887 56.1256 1.94887 55.9266C1.94887 55.7205 2.00928 55.5464 2.13009 55.4042C2.25091 55.255 2.38238 55.1413 2.52452 55.0631C2.72351 55.2194 2.96514 55.3545 3.24941 55.4682C3.54079 55.5819 3.85705 55.6387 4.19817 55.6387C4.54641 55.6387 4.79159 55.5854 4.93373 55.4788C5.07586 55.3722 5.14693 55.2479 5.14693 55.1057C5.14693 54.9636 5.09008 54.857 4.97637 54.7859C4.86266 54.7078 4.70276 54.6331 4.49666 54.5621L4.04893 54.4128ZM7.90559 50.3619C7.90559 50.0919 7.99443 49.8645 8.1721 49.6797C8.35687 49.4949 8.59851 49.4025 8.89699 49.4025C9.19548 49.4025 9.43356 49.4949 9.61123 49.6797C9.796 49.8645 9.88839 50.0919 9.88839 50.3619C9.88839 50.632 9.796 50.8594 9.61123 51.0442C9.43356 51.229 9.19548 51.3214 8.89699 51.3214C8.59851 51.3214 8.35687 51.229 8.1721 51.0442C7.99443 50.8594 7.90559 50.632 7.90559 50.3619ZM9.80311 56.9713C9.72493 56.9855 9.60767 57.0033 9.45132 57.0246C9.30208 57.053 9.14928 57.0672 8.99293 57.0672C8.83658 57.0672 8.69445 57.0566 8.56653 57.0352C8.44571 57.0139 8.34266 56.9713 8.25738 56.9073C8.1721 56.8434 8.10458 56.7581 8.05484 56.6515C8.01219 56.5378 7.99087 56.3921 7.99087 56.2144V51.8757C8.06905 51.8615 8.18276 51.8437 8.332 51.8224C8.48835 51.794 8.6447 51.7798 8.80105 51.7798C8.9574 51.7798 9.09598 51.7904 9.2168 51.8117C9.34472 51.8331 9.45132 51.8757 9.5366 51.9397C9.62189 52.0036 9.68585 52.0925 9.72849 52.2062C9.77824 52.3128 9.80311 52.4549 9.80311 52.6326V56.9713ZM13.4407 51.6412C13.732 51.6412 14.0163 51.6838 14.2935 51.7691C14.5777 51.8473 14.8229 51.9681 15.029 52.1315C15.2422 51.9894 15.4803 51.8721 15.7433 51.7798C16.0133 51.6874 16.3367 51.6412 16.7133 51.6412C16.9834 51.6412 17.2463 51.6767 17.5022 51.7478C17.7651 51.8188 17.9961 51.9325 18.1951 52.0889C18.4012 52.2381 18.5647 52.4407 18.6855 52.6965C18.8063 52.9453 18.8667 53.2509 18.8667 53.6133V56.9713C18.7956 56.9926 18.6819 57.0139 18.5256 57.0352C18.3763 57.0566 18.22 57.0672 18.0565 57.0672C17.9002 57.0672 17.758 57.0566 17.6301 57.0352C17.5093 57.0139 17.4063 56.9713 17.321 56.9073C17.2357 56.8434 17.1682 56.7581 17.1184 56.6515C17.0758 56.5378 17.0545 56.3921 17.0545 56.2144V53.6666C17.0545 53.4534 16.9941 53.3006 16.8732 53.2082C16.7524 53.1087 16.589 53.059 16.3829 53.059C16.2834 53.059 16.1768 53.0839 16.0631 53.1336C15.9494 53.1762 15.8641 53.2224 15.8072 53.2722C15.8143 53.3006 15.8179 53.329 15.8179 53.3575C15.8179 53.3788 15.8179 53.4001 15.8179 53.4214V56.9713C15.7397 56.9926 15.6224 57.0139 15.4661 57.0352C15.3169 57.0566 15.1641 57.0672 15.0077 57.0672C14.8514 57.0672 14.7092 57.0566 14.5813 57.0352C14.4605 57.0139 14.3574 56.9713 14.2722 56.9073C14.1869 56.8434 14.1194 56.7581 14.0696 56.6515C14.027 56.5378 14.0056 56.3921 14.0056 56.2144V53.6666C14.0056 53.4534 13.9381 53.3006 13.8031 53.2082C13.6752 53.1087 13.5188 53.059 13.3341 53.059C13.2061 53.059 13.096 53.0803 13.0036 53.1229C12.9112 53.1585 12.833 53.194 12.7691 53.2295V56.9713C12.698 56.9926 12.5843 57.0139 12.4279 57.0352C12.2787 57.0566 12.1223 57.0672 11.9589 57.0672C11.8025 57.0672 11.6604 57.0566 11.5325 57.0352C11.4117 57.0139 11.3086 56.9713 11.2233 56.9073C11.1381 56.8434 11.0705 56.7581 11.0208 56.6515C10.9781 56.5378 10.9568 56.3921 10.9568 56.2144V52.995C10.9568 52.8031 10.9959 52.6503 11.0741 52.5366C11.1594 52.4229 11.2731 52.3163 11.4152 52.2168C11.6568 52.0463 11.9553 51.9077 12.3107 51.8011C12.6731 51.6945 13.0498 51.6412 13.4407 51.6412ZM22.3494 51.6412C22.7758 51.6412 23.1703 51.698 23.5327 51.8117C23.9023 51.9183 24.2185 52.0853 24.4815 52.3128C24.7444 52.5402 24.9505 52.828 25.0998 53.1762C25.249 53.5174 25.3236 53.926 25.3236 54.4022C25.3236 54.857 25.2597 55.255 25.1317 55.5961C25.0038 55.9372 24.8226 56.2251 24.5881 56.4596C24.3535 56.687 24.0693 56.8576 23.7352 56.9713C23.4083 57.085 23.0423 57.1418 22.6372 57.1418C22.3317 57.1418 22.0474 57.0956 21.7844 57.0033V58.7728C21.7134 58.7942 21.5997 58.8155 21.4433 58.8368C21.287 58.8652 21.1271 58.8795 20.9636 58.8795C20.8072 58.8795 20.6651 58.8688 20.5372 58.8475C20.4164 58.8261 20.3133 58.7835 20.228 58.7195C20.1428 58.6556 20.0788 58.5668 20.0362 58.453C19.9935 58.3464 19.9722 58.2043 19.9722 58.0266V52.9097C19.9722 52.7179 20.0113 52.5615 20.0895 52.4407C20.1747 52.3199 20.2884 52.2097 20.4306 52.1102C20.6509 51.9681 20.9245 51.8544 21.2514 51.7691C21.5783 51.6838 21.9443 51.6412 22.3494 51.6412ZM22.3707 55.7134C23.1027 55.7134 23.4687 55.2763 23.4687 54.4022C23.4687 53.9473 23.3764 53.6098 23.1916 53.3894C23.0139 53.1691 22.7545 53.059 22.4134 53.059C22.2784 53.059 22.1575 53.0767 22.0509 53.1123C21.9443 53.1407 21.8519 53.1762 21.7738 53.2189V55.5641C21.8591 55.6068 21.9514 55.6423 22.0509 55.6707C22.1504 55.6992 22.257 55.7134 22.3707 55.7134ZM28.0522 56.9713C27.974 56.9855 27.8568 57.0033 27.7004 57.0246C27.5512 57.053 27.3984 57.0672 27.242 57.0672C27.0857 57.0672 26.9436 57.0566 26.8156 57.0352C26.6948 57.0139 26.5918 56.9713 26.5065 56.9073C26.4212 56.8434 26.3537 56.7581 26.3039 56.6515C26.2613 56.5378 26.24 56.3921 26.24 56.2144V50.0315C26.3182 50.0173 26.4319 49.9995 26.5811 49.9782C26.7375 49.9498 26.8938 49.9355 27.0502 49.9355C27.2065 49.9355 27.3451 49.9462 27.4659 49.9675C27.5938 49.9888 27.7004 50.0315 27.7857 50.0954C27.871 50.1594 27.935 50.2482 27.9776 50.3619C28.0273 50.4685 28.0522 50.6107 28.0522 50.7884V56.9713ZM31.9354 57.1525C31.5161 57.1525 31.1253 57.0956 30.7628 56.9819C30.4075 56.8611 30.0948 56.6834 29.8247 56.4489C29.5618 56.2144 29.3521 55.9195 29.1958 55.5641C29.0465 55.2088 28.9719 54.793 28.9719 54.3169C28.9719 53.8478 29.0465 53.4463 29.1958 53.1123C29.3521 52.7712 29.5547 52.494 29.8034 52.2808C30.0521 52.0605 30.3364 51.9006 30.6562 51.8011C30.976 51.6945 31.3029 51.6412 31.637 51.6412C32.0136 51.6412 32.3547 51.698 32.6603 51.8117C32.973 51.9254 33.2395 52.0818 33.4599 52.2808C33.6873 52.4798 33.8614 52.7179 33.9822 52.995C34.1101 53.2722 34.1741 53.5742 34.1741 53.9011C34.1741 54.1428 34.1066 54.3275 33.9715 54.4555C33.8365 54.5834 33.6482 54.6651 33.4066 54.7006L30.7735 55.0951C30.8517 55.3296 31.0116 55.5073 31.2532 55.6281C31.4948 55.7418 31.772 55.7987 32.0847 55.7987C32.3761 55.7987 32.6497 55.7631 32.9055 55.692C33.1685 55.6139 33.3817 55.525 33.5451 55.4255C33.6588 55.4966 33.7548 55.5961 33.833 55.724C33.9111 55.852 33.9502 55.987 33.9502 56.1291C33.9502 56.4489 33.801 56.687 33.5025 56.8434C33.2751 56.9642 33.0192 57.0459 32.735 57.0885C32.4507 57.1312 32.1842 57.1525 31.9354 57.1525ZM31.637 52.963C31.4664 52.963 31.3172 52.9915 31.1892 53.0483C31.0684 53.1052 30.9689 53.1798 30.8907 53.2722C30.8126 53.3575 30.7522 53.457 30.7095 53.5707C30.674 53.6773 30.6527 53.7874 30.6456 53.9011L32.4685 53.6026C32.4471 53.4605 32.369 53.3184 32.2339 53.1762C32.0989 53.0341 31.8999 52.963 31.637 52.963ZM34.7266 56.1185C34.7266 55.82 34.819 55.5712 35.0038 55.3722C35.1885 55.1733 35.4408 55.0738 35.7606 55.0738C36.0804 55.0738 36.3327 55.1733 36.5175 55.3722C36.7023 55.5712 36.7947 55.82 36.7947 56.1185C36.7947 56.4169 36.7023 56.6657 36.5175 56.8647C36.3327 57.0637 36.0804 57.1632 35.7606 57.1632C35.4408 57.1632 35.1885 57.0637 35.0038 56.8647C34.819 56.6657 34.7266 56.4169 34.7266 56.1185ZM41.6928 54.4128C41.3801 54.3062 41.0958 54.1996 40.84 54.093C40.5841 53.9793 40.3638 53.8443 40.179 53.6879C39.9943 53.5316 39.8486 53.3468 39.742 53.1336C39.6425 52.9133 39.5927 52.6468 39.5927 52.3341C39.5927 51.73 39.8237 51.2467 40.2856 50.8843C40.7547 50.5218 41.4085 50.3406 42.2471 50.3406C42.5527 50.3406 42.837 50.3619 43.0999 50.4046C43.3629 50.4472 43.5867 50.5147 43.7715 50.6071C43.9634 50.6924 44.1127 50.8061 44.2193 50.9483C44.3259 51.0833 44.3792 51.2432 44.3792 51.428C44.3792 51.6127 44.3365 51.7726 44.2512 51.9077C44.166 52.0356 44.0629 52.1458 43.9421 52.2381C43.7857 52.1386 43.5761 52.0534 43.3131 51.9823C43.0502 51.9041 42.7624 51.865 42.4497 51.865C42.1299 51.865 41.8953 51.9112 41.7461 52.0036C41.5968 52.0889 41.5222 52.1991 41.5222 52.3341C41.5222 52.4407 41.5684 52.5295 41.6608 52.6006C41.7532 52.6645 41.8918 52.725 42.0766 52.7818L42.6415 52.963C43.3096 53.1762 43.8213 53.4499 44.1766 53.7839C44.5391 54.1108 44.7203 54.5585 44.7203 55.1271C44.7203 55.7311 44.4822 56.2215 44.0061 56.5982C43.5299 56.9677 42.8299 57.1525 41.906 57.1525C41.5791 57.1525 41.2735 57.1241 40.9892 57.0672C40.712 57.0175 40.4669 56.9428 40.2537 56.8434C40.0476 56.7367 39.8841 56.6088 39.7633 56.4596C39.6496 56.3032 39.5927 56.1256 39.5927 55.9266C39.5927 55.7205 39.6531 55.5464 39.7739 55.4042C39.8948 55.255 40.0262 55.1413 40.1684 55.0631C40.3674 55.2194 40.609 55.3545 40.8933 55.4682C41.1846 55.5819 41.5009 55.6387 41.842 55.6387C42.1903 55.6387 42.4354 55.5854 42.5776 55.4788C42.7197 55.3722 42.7908 55.2479 42.7908 55.1057C42.7908 54.9636 42.7339 54.857 42.6202 54.7859C42.5065 54.7078 42.3466 54.6331 42.1405 54.5621L41.6928 54.4128ZM50.975 54.3915C50.975 54.8321 50.9075 55.2266 50.7724 55.5748C50.6374 55.9159 50.4455 56.2037 50.1968 56.4383C49.9552 56.6728 49.6638 56.8505 49.3227 56.9713C48.9815 57.0921 48.6013 57.1525 48.182 57.1525C47.7627 57.1525 47.3825 57.0885 47.0414 56.9606C46.7003 56.8327 46.4053 56.6515 46.1566 56.4169C45.9149 56.1753 45.7266 55.8839 45.5916 55.5428C45.4566 55.2017 45.389 54.8179 45.389 54.3915C45.389 53.9722 45.4566 53.592 45.5916 53.2509C45.7266 52.9097 45.9149 52.6219 46.1566 52.3874C46.4053 52.1458 46.7003 51.961 47.0414 51.8331C47.3825 51.7051 47.7627 51.6412 48.182 51.6412C48.6013 51.6412 48.9815 51.7087 49.3227 51.8437C49.6638 51.9716 49.9552 52.1564 50.1968 52.398C50.4455 52.6326 50.6374 52.9204 50.7724 53.2615C50.9075 53.6026 50.975 53.9793 50.975 54.3915ZM47.2439 54.3915C47.2439 54.825 47.3256 55.159 47.4891 55.3936C47.6597 55.621 47.8942 55.7347 48.1927 55.7347C48.4912 55.7347 48.7186 55.6174 48.8749 55.3829C49.0384 55.1484 49.1201 54.8179 49.1201 54.3915C49.1201 53.9651 49.0384 53.6382 48.8749 53.4108C48.7115 53.1762 48.4805 53.059 48.182 53.059C47.8835 53.059 47.6526 53.1762 47.4891 53.4108C47.3256 53.6382 47.2439 53.9651 47.2439 54.3915ZM53.6714 56.9713C53.6003 56.9926 53.4866 57.0139 53.3302 57.0352C53.181 57.0566 53.0246 57.0672 52.8612 57.0672C52.7048 57.0672 52.5627 57.0566 52.4348 57.0352C52.314 57.0139 52.2109 56.9713 52.1256 56.9073C52.0403 56.8434 51.9728 56.7581 51.9231 56.6515C51.8804 56.5378 51.8591 56.3921 51.8591 56.2144V53.0163C51.8591 52.8529 51.8876 52.7143 51.9444 52.6006C52.0084 52.4798 52.0972 52.3732 52.2109 52.2808C52.3246 52.1884 52.4632 52.1067 52.6267 52.0356C52.7972 51.9574 52.9784 51.8899 53.1703 51.8331C53.3622 51.7762 53.5612 51.7336 53.7673 51.7051C53.9734 51.6696 54.1795 51.6518 54.3856 51.6518C54.7267 51.6518 54.9968 51.7193 55.1958 51.8544C55.3948 51.9823 55.4943 52.1955 55.4943 52.494C55.4943 52.5935 55.48 52.693 55.4516 52.7925C55.4232 52.8849 55.3877 52.9701 55.345 53.0483C55.1958 53.0483 55.043 53.0554 54.8866 53.0696C54.7303 53.0839 54.5775 53.1052 54.4282 53.1336C54.279 53.162 54.1369 53.194 54.0018 53.2295C53.8739 53.258 53.7637 53.2935 53.6714 53.3361V56.9713ZM58.0541 55.2017C58.0541 55.3865 58.111 55.5179 58.2247 55.5961C58.3455 55.6743 58.5125 55.7134 58.7257 55.7134C58.8323 55.7134 58.9425 55.7063 59.0562 55.692C59.1699 55.6707 59.2694 55.6459 59.3547 55.6174C59.4186 55.6956 59.4719 55.7844 59.5146 55.8839C59.5643 55.9763 59.5892 56.09 59.5892 56.2251C59.5892 56.4951 59.4861 56.7154 59.28 56.886C59.0811 57.0566 58.7257 57.1418 58.214 57.1418C57.5886 57.1418 57.1054 56.9997 56.7642 56.7154C56.4302 56.4312 56.2632 55.9692 56.2632 55.3296V50.767C56.3414 50.7457 56.4515 50.7244 56.5937 50.7031C56.7429 50.6746 56.8993 50.6604 57.0627 50.6604C57.3754 50.6604 57.6171 50.7173 57.7876 50.831C57.9653 50.9376 58.0541 51.1686 58.0541 51.5239V52.2062H59.4506C59.4932 52.2843 59.5323 52.3838 59.5679 52.5046C59.6105 52.6184 59.6318 52.7463 59.6318 52.8884C59.6318 53.1372 59.575 53.3184 59.4613 53.4321C59.3547 53.5387 59.209 53.592 59.0242 53.592H58.0541V55.2017ZM63.1873 57.1525C62.768 57.1525 62.3772 57.0956 62.0147 56.9819C61.6594 56.8611 61.3467 56.6834 61.0766 56.4489C60.8137 56.2144 60.604 55.9195 60.4477 55.5641C60.2984 55.2088 60.2238 54.793 60.2238 54.3169C60.2238 53.8478 60.2984 53.4463 60.4477 53.1123C60.604 52.7712 60.8066 52.494 61.0553 52.2808C61.304 52.0605 61.5883 51.9006 61.9081 51.8011C62.2279 51.6945 62.5548 51.6412 62.8889 51.6412C63.2655 51.6412 63.6066 51.698 63.9122 51.8117C64.2249 51.9254 64.4914 52.0818 64.7118 52.2808C64.9392 52.4798 65.1133 52.7179 65.2341 52.995C65.362 53.2722 65.426 53.5742 65.426 53.9011C65.426 54.1428 65.3585 54.3275 65.2234 54.4555C65.0884 54.5834 64.9001 54.6651 64.6585 54.7006L62.0254 55.0951C62.1036 55.3296 62.2635 55.5073 62.5051 55.6281C62.7467 55.7418 63.0239 55.7987 63.3366 55.7987C63.628 55.7987 63.9016 55.7631 64.1574 55.692C64.4204 55.6139 64.6336 55.525 64.797 55.4255C64.9107 55.4966 65.0067 55.5961 65.0849 55.724C65.163 55.852 65.2021 55.987 65.2021 56.1291C65.2021 56.4489 65.0529 56.687 64.7544 56.8434C64.527 56.9642 64.2711 57.0459 63.9869 57.0885C63.7026 57.1312 63.4361 57.1525 63.1873 57.1525ZM62.8889 52.963C62.7183 52.963 62.5691 52.9915 62.4411 53.0483C62.3203 53.1052 62.2208 53.1798 62.1426 53.2722C62.0645 53.3575 62.0041 53.457 61.9614 53.5707C61.9259 53.6773 61.9046 53.7874 61.8975 53.9011L63.7204 53.6026C63.699 53.4605 63.6209 53.3184 63.4858 53.1762C63.3508 53.0341 63.1518 52.963 62.8889 52.963ZM66.0744 54.3915C66.0744 53.9225 66.1455 53.5174 66.2876 53.1762C66.4298 52.828 66.6252 52.5402 66.8739 52.3128C67.1298 52.0853 67.4247 51.9183 67.7587 51.8117C68.0999 51.698 68.4659 51.6412 68.8567 51.6412C68.9989 51.6412 69.1375 51.6554 69.2725 51.6838C69.4075 51.7051 69.5177 51.7336 69.603 51.7691V50.0421C69.674 50.0208 69.7877 49.9995 69.9441 49.9782C70.1004 49.9498 70.2603 49.9355 70.4238 49.9355C70.5801 49.9355 70.7187 49.9462 70.8395 49.9675C70.9675 49.9888 71.0741 50.0315 71.1593 50.0954C71.2446 50.1594 71.3086 50.2482 71.3512 50.3619C71.3939 50.4685 71.4152 50.6107 71.4152 50.7884V55.8413C71.4152 56.1753 71.2588 56.4418 70.9461 56.6408C70.74 56.7758 70.4735 56.8931 70.1466 56.9926C69.8197 57.0992 69.443 57.1525 69.0166 57.1525C68.5547 57.1525 68.139 57.0885 67.7694 56.9606C67.4069 56.8327 67.0978 56.6479 66.842 56.4063C66.5932 56.1647 66.4013 55.8768 66.2663 55.5428C66.1384 55.2017 66.0744 54.8179 66.0744 54.3915ZM69.1019 53.059C68.7182 53.059 68.4232 53.1691 68.2171 53.3894C68.011 53.6098 67.908 53.9438 67.908 54.3915C67.908 54.8321 68.0039 55.1661 68.1958 55.3936C68.3877 55.6139 68.6649 55.724 69.0273 55.724C69.1552 55.724 69.2689 55.7063 69.3684 55.6707C69.475 55.6281 69.5568 55.5819 69.6136 55.5321V53.1869C69.4715 53.1016 69.3009 53.059 69.1019 53.059ZM72.2247 56.1185C72.2247 55.82 72.3171 55.5712 72.5019 55.3722C72.6866 55.1733 72.9389 55.0738 73.2587 55.0738C73.5785 55.0738 73.8308 55.1733 74.0156 55.3722C74.2004 55.5712 74.2928 55.82 74.2928 56.1185C74.2928 56.4169 74.2004 56.6657 74.0156 56.8647C73.8308 57.0637 73.5785 57.1632 73.2587 57.1632C72.9389 57.1632 72.6866 57.0637 72.5019 56.8647C72.3171 56.6657 72.2247 56.4169 72.2247 56.1185ZM79.1909 54.4128C78.8782 54.3062 78.5939 54.1996 78.3381 54.093C78.0822 53.9793 77.8619 53.8443 77.6771 53.6879C77.4924 53.5316 77.3467 53.3468 77.2401 53.1336C77.1406 52.9133 77.0908 52.6468 77.0908 52.3341C77.0908 51.73 77.3218 51.2467 77.7838 50.8843C78.2528 50.5218 78.9066 50.3406 79.7452 50.3406C80.0508 50.3406 80.3351 50.3619 80.598 50.4046C80.861 50.4472 81.0849 50.5147 81.2696 50.6071C81.4615 50.6924 81.6108 50.8061 81.7174 50.9483C81.824 51.0833 81.8773 51.2432 81.8773 51.428C81.8773 51.6127 81.8346 51.7726 81.7493 51.9077C81.6641 52.0356 81.561 52.1458 81.4402 52.2381C81.2839 52.1386 81.0742 52.0534 80.8112 51.9823C80.5483 51.9041 80.2605 51.865 79.9478 51.865C79.628 51.865 79.3934 51.9112 79.2442 52.0036C79.095 52.0889 79.0203 52.1991 79.0203 52.3341C79.0203 52.4407 79.0665 52.5295 79.1589 52.6006C79.2513 52.6645 79.3899 52.725 79.5747 52.7818L80.1397 52.963C80.8077 53.1762 81.3194 53.4499 81.6747 53.7839C82.0372 54.1108 82.2184 54.5585 82.2184 55.1271C82.2184 55.7311 81.9803 56.2215 81.5042 56.5982C81.028 56.9677 80.328 57.1525 79.4041 57.1525C79.0772 57.1525 78.7716 57.1241 78.4873 57.0672C78.2102 57.0175 77.965 56.9428 77.7518 56.8434C77.5457 56.7367 77.3822 56.6088 77.2614 56.4596C77.1477 56.3032 77.0908 56.1256 77.0908 55.9266C77.0908 55.7205 77.1512 55.5464 77.2721 55.4042C77.3929 55.255 77.5244 55.1413 77.6665 55.0631C77.8655 55.2194 78.1071 55.3545 78.3914 55.4682C78.6828 55.5819 78.999 55.6387 79.3401 55.6387C79.6884 55.6387 79.9336 55.5854 80.0757 55.4788C80.2178 55.3722 80.2889 55.2479 80.2889 55.1057C80.2889 54.9636 80.232 54.857 80.1183 54.7859C80.0046 54.7078 79.8447 54.6331 79.6386 54.5621L79.1909 54.4128ZM83.059 51.8757C83.13 51.8544 83.2402 51.8331 83.3894 51.8117C83.5458 51.7904 83.7057 51.7798 83.8691 51.7798C84.0255 51.7798 84.1641 51.7904 84.2849 51.8117C84.4128 51.8331 84.5194 51.8757 84.6047 51.9397C84.69 52.0036 84.7539 52.0925 84.7966 52.2062C84.8463 52.3128 84.8712 52.4549 84.8712 52.6326V54.9245C84.8712 55.2159 84.9423 55.4255 85.0844 55.5535C85.2265 55.6743 85.4326 55.7347 85.7027 55.7347C85.8662 55.7347 85.9976 55.7205 86.0971 55.692C86.2037 55.6636 86.2855 55.6352 86.3423 55.6068V51.8757C86.4134 51.8544 86.5235 51.8331 86.6728 51.8117C86.8291 51.7904 86.989 51.7798 87.1525 51.7798C87.3088 51.7798 87.4474 51.7904 87.5682 51.8117C87.6962 51.8331 87.8028 51.8757 87.888 51.9397C87.9733 52.0036 88.0373 52.0925 88.0799 52.2062C88.1297 52.3128 88.1545 52.4549 88.1545 52.6326V55.8733C88.1545 56.2286 88.0053 56.4951 87.7068 56.6728C87.4581 56.8291 87.1596 56.9464 86.8114 57.0246C86.4702 57.1099 86.0971 57.1525 85.692 57.1525C85.3083 57.1525 84.9529 57.1099 84.626 57.0246C84.3062 56.9393 84.029 56.8078 83.7945 56.6301C83.56 56.4525 83.3788 56.2251 83.2509 55.9479C83.1229 55.6636 83.059 55.3225 83.059 54.9245V51.8757ZM91.6408 51.6412C92.0672 51.6412 92.4616 51.698 92.8241 51.8117C93.1936 51.9183 93.5099 52.0853 93.7728 52.3128C94.0358 52.5402 94.2419 52.828 94.3911 53.1762C94.5403 53.5174 94.615 53.926 94.615 54.4022C94.615 54.857 94.551 55.255 94.4231 55.5961C94.2952 55.9372 94.1139 56.2251 93.8794 56.4596C93.6449 56.687 93.3606 56.8576 93.0266 56.9713C92.6997 57.085 92.3337 57.1418 91.9286 57.1418C91.623 57.1418 91.3387 57.0956 91.0758 57.0033V58.7728C91.0047 58.7942 90.891 58.8155 90.7347 58.8368C90.5783 58.8652 90.4184 58.8795 90.2549 58.8795C90.0986 58.8795 89.9565 58.8688 89.8285 58.8475C89.7077 58.8261 89.6047 58.7835 89.5194 58.7195C89.4341 58.6556 89.3701 58.5668 89.3275 58.453C89.2849 58.3464 89.2635 58.2043 89.2635 58.0266V52.9097C89.2635 52.7179 89.3026 52.5615 89.3808 52.4407C89.4661 52.3199 89.5798 52.2097 89.7219 52.1102C89.9422 51.9681 90.2159 51.8544 90.5428 51.7691C90.8697 51.6838 91.2357 51.6412 91.6408 51.6412ZM91.6621 55.7134C92.3941 55.7134 92.7601 55.2763 92.7601 54.4022C92.7601 53.9473 92.6677 53.6098 92.4829 53.3894C92.3053 53.1691 92.0459 53.059 91.7047 53.059C91.5697 53.059 91.4489 53.0767 91.3423 53.1123C91.2357 53.1407 91.1433 53.1762 91.0651 53.2189V55.5641C91.1504 55.6068 91.2428 55.6423 91.3423 55.6707C91.4418 55.6992 91.5484 55.7134 91.6621 55.7134ZM98.239 57.1525C97.8197 57.1525 97.4288 57.0956 97.0664 56.9819C96.7111 56.8611 96.3984 56.6834 96.1283 56.4489C95.8653 56.2144 95.6557 55.9195 95.4993 55.5641C95.3501 55.2088 95.2755 54.793 95.2755 54.3169C95.2755 53.8478 95.3501 53.4463 95.4993 53.1123C95.6557 52.7712 95.8582 52.494 96.107 52.2808C96.3557 52.0605 96.64 51.9006 96.9598 51.8011C97.2796 51.6945 97.6065 51.6412 97.9405 51.6412C98.3172 51.6412 98.6583 51.698 98.9639 51.8117C99.2766 51.9254 99.5431 52.0818 99.7634 52.2808C99.9908 52.4798 100.165 52.7179 100.286 52.995C100.414 53.2722 100.478 53.5742 100.478 53.9011C100.478 54.1428 100.41 54.3275 100.275 54.4555C100.14 54.5834 99.9518 54.6651 99.7101 54.7006L97.0771 55.0951C97.1552 55.3296 97.3151 55.5073 97.5568 55.6281C97.7984 55.7418 98.0756 55.7987 98.3883 55.7987C98.6796 55.7987 98.9533 55.7631 99.2091 55.692C99.472 55.6139 99.6853 55.525 99.8487 55.4255C99.9624 55.4966 100.058 55.5961 100.137 55.724C100.215 55.852 100.254 55.987 100.254 56.1291C100.254 56.4489 100.105 56.687 99.8061 56.8434C99.5787 56.9642 99.3228 57.0459 99.0385 57.0885C98.7543 57.1312 98.4878 57.1525 98.239 57.1525ZM97.9405 52.963C97.77 52.963 97.6207 52.9915 97.4928 53.0483C97.372 53.1052 97.2725 53.1798 97.1943 53.2722C97.1161 53.3575 97.0557 53.457 97.0131 53.5707C96.9776 53.6773 96.9562 53.7874 96.9491 53.9011L98.772 53.6026C98.7507 53.4605 98.6725 53.3184 98.5375 53.1762C98.4025 53.0341 98.2035 52.963 97.9405 52.963ZM103.162 56.9713C103.091 56.9926 102.977 57.0139 102.821 57.0352C102.672 57.0566 102.515 57.0672 102.352 57.0672C102.196 57.0672 102.054 57.0566 101.926 57.0352C101.805 57.0139 101.702 56.9713 101.616 56.9073C101.531 56.8434 101.464 56.7581 101.414 56.6515C101.371 56.5378 101.35 56.3921 101.35 56.2144V53.0163C101.35 52.8529 101.378 52.7143 101.435 52.6006C101.499 52.4798 101.588 52.3732 101.702 52.2808C101.815 52.1884 101.954 52.1067 102.118 52.0356C102.288 51.9574 102.469 51.8899 102.661 51.8331C102.853 51.7762 103.052 51.7336 103.258 51.7051C103.464 51.6696 103.67 51.6518 103.876 51.6518C104.218 51.6518 104.488 51.7193 104.687 51.8544C104.886 51.9823 104.985 52.1955 104.985 52.494C104.985 52.5935 104.971 52.693 104.942 52.7925C104.914 52.8849 104.878 52.9701 104.836 53.0483C104.687 53.0483 104.534 53.0554 104.377 53.0696C104.221 53.0839 104.068 53.1052 103.919 53.1336C103.77 53.162 103.628 53.194 103.493 53.2295C103.365 53.258 103.255 53.2935 103.162 53.3361V56.9713Z" fill="white"/>
<defs>
<linearGradient id="paint0_linear" x1="54.0625" y1="0.29541" x2="54.0625" y2="62.7338" gradientUnits="userSpaceOnUse">
<stop stop-color="#6A28F5"/>
<stop offset="1" stop-color="#FF00D6"/>
</linearGradient>
</defs>
</svg>
