<svg width="31" height="25" viewBox="0 0 31 25" fill="none" xmlns="http://www.w3.org/2000/svg">
<path d="M28.2341 0.395996C29.2697 0.395996 30.1091 1.23543 30.1091 2.271C30.1091 3.30655 29.2697 4.146 28.2341 4.146H1.98413C0.948606 4.146 0.109131 3.30655 0.109131 2.271C0.109131 1.23543 0.948606 0.395996 1.98413 0.395996H28.2341ZM28.2341 10.521C29.2697 10.521 30.1091 11.3604 30.1091 12.396C30.1091 13.4316 29.2697 14.271 28.2341 14.271H1.98413C0.948606 14.271 0.109131 13.4316 0.109131 12.396C0.109131 11.3604 0.948606 10.521 1.98413 10.521H28.2341ZM28.2341 20.646C29.2697 20.646 30.1091 21.4854 30.1091 22.521C30.1091 23.5566 29.2697 24.396 28.2341 24.396H1.98413C0.948606 24.396 0.109131 23.5566 0.109131 22.521C0.109131 21.4854 0.948606 20.646 1.98413 20.646H28.2341Z" fill="#808080"/>
</svg>
